# xmcd CD database file
#
# Track frame offsets:
#	150
#	23615
#	42520
#	65990
#
# Disc length: 1130 seconds
#
# Revision: 0
# Processed by: cddbd v1.5PL3 Copyright (c) Steve Scherf et al.
# Submitted via: CDex 1.50beta8
#
DISCID=33046804
DTITLE=Puppy's - 初恋日和
DYEAR=2003
DGENRE=Anime
TTITLE0=初恋日和
TTITLE1=僕は犬だよ
TTITLE2=初恋日和(Off Vocal Version)
TTITLE3=僕は犬だよ(Off Vocal Version)
EXTD=YEAR: 2003
EXTT0=
EXTT1=
EXTT2=
EXTT3=
PLAYORDER=
